<svg width="209" height="42" viewBox="0 0 209 42" fill="none" xmlns="http://www.w3.org/2000/svg">
<path d="M-2.41101e-05 0.119992H14.88C21.04 0.119992 25.8 1.31999 29.16 3.71999C32.56 6.11999 34.26 9.47999 34.26 13.8C34.26 16.52 33.42 18.9 31.74 20.94C30.1 22.98 27.84 24.56 24.96 25.68C22.12 26.76 18.96 27.3 15.48 27.3H12.96V41.4H-2.41101e-05V0.119992ZM15.54 18.96C17.66 18.96 19.3 18.52 20.46 17.64C21.62 16.76 22.2 15.48 22.2 13.8C22.2 12.12 21.62 10.86 20.46 10.02C19.34 9.17999 17.7 8.75999 15.54 8.75999H12.96V18.84C13.76 18.92 14.62 18.96 15.54 18.96ZM53.0775 41.88C49.7575 41.88 46.7975 41.22 44.1975 39.9C41.6375 38.54 39.6375 36.7 38.1975 34.38C36.7575 32.02 36.0375 29.36 36.0375 26.4C36.0375 23.36 36.7775 20.66 38.2575 18.3C39.7375 15.94 41.7375 14.12 44.2575 12.84C46.7775 11.56 49.5775 10.92 52.6575 10.92C55.6175 10.92 58.1375 11.58 60.2175 12.9C62.3375 14.18 63.9175 15.94 64.9575 18.18C65.9975 20.38 66.5175 22.86 66.5175 25.62C66.5175 26.34 66.4775 26.86 66.3975 27.18L48.3975 29.52C48.8775 30.92 49.6575 31.94 50.7375 32.58C51.8175 33.18 53.2375 33.48 54.9975 33.48C57.7175 33.48 60.6575 32.78 63.8175 31.38L65.3175 39.42C61.5975 41.06 57.5175 41.88 53.0775 41.88ZM57.2175 21.96C56.5775 19.44 55.0575 18.18 52.6575 18.18C51.2175 18.18 50.0775 18.72 49.2375 19.8C48.3975 20.88 47.9575 22.28 47.9175 24L57.2175 21.96ZM84.0173 41.88C80.4973 41.88 77.7573 40.88 75.7973 38.88C73.8373 36.84 72.8573 34.04 72.8573 30.48V18.78H69.0173V11.34H73.7573L79.3373 -9.53674e-06H85.3973V11.34H92.3573V18.78H85.3973V28.98C85.3973 29.98 85.7173 30.76 86.3573 31.32C86.9973 31.88 87.8973 32.16 89.0573 32.16C90.1373 32.16 91.1173 31.92 91.9973 31.44L92.4773 39.84C91.4773 40.44 90.1773 40.94 88.5773 41.34C87.0173 41.7 85.4973 41.88 84.0173 41.88Z" fill="#0D0C22"/>
<path d="M107.303 32.7L121.403 8.87999H107.843V0.119992H134.843V8.87999L121.043 32.64H135.443V41.4H107.303V32.7ZM155.558 41.88C152.238 41.88 149.278 41.22 146.678 39.9C144.118 38.54 142.118 36.7 140.678 34.38C139.238 32.02 138.518 29.36 138.518 26.4C138.518 23.36 139.258 20.66 140.738 18.3C142.218 15.94 144.218 14.12 146.738 12.84C149.258 11.56 152.058 10.92 155.138 10.92C158.098 10.92 160.618 11.58 162.698 12.9C164.818 14.18 166.398 15.94 167.438 18.18C168.478 20.38 168.998 22.86 168.998 25.62C168.998 26.34 168.958 26.86 168.878 27.18L150.878 29.52C151.358 30.92 152.138 31.94 153.218 32.58C154.298 33.18 155.718 33.48 157.478 33.48C160.198 33.48 163.138 32.78 166.298 31.38L167.798 39.42C164.078 41.06 159.998 41.88 155.558 41.88ZM159.698 21.96C159.058 19.44 157.538 18.18 155.138 18.18C153.698 18.18 152.558 18.72 151.718 19.8C150.878 20.88 150.438 22.28 150.398 24L159.698 21.96ZM173.358 11.76H185.418V17.88C187.738 13.24 191.418 10.92 196.458 10.92C200.298 10.92 203.298 12.3 205.458 15.06C207.658 17.78 208.758 21.56 208.758 26.4V41.4H196.158V25.14C196.158 23.42 195.778 22.1 195.018 21.18C194.298 20.26 193.278 19.8 191.958 19.8C190.998 19.8 190.058 20.12 189.138 20.76C188.218 21.36 187.458 22.24 186.858 23.4C186.298 24.56 186.018 25.88 186.018 27.36V41.4H173.358V11.76Z" fill="#FBBC05"/>
</svg>
